<?xml version="1.0" standalone="no"?><!DOCTYPE svg PUBLIC "-//W3C//DTD SVG 1.1//EN" "http://www.w3.org/Graphics/SVG/1.1/DTD/svg11.dtd"><svg t="1758807483986" class="icon" viewBox="0 0 1024 1024" version="1.1" xmlns="http://www.w3.org/2000/svg" p-id="18072" xmlns:xlink="http://www.w3.org/1999/xlink" width="256" height="256"><path d="M512 953.6c243.2 0 441.6-198.4 441.6-441.6S755.2 70.4 512 70.4 70.4 268.8 70.4 512 268.8 953.6 512 953.6z m0 70.4C228.266667 1024 0 795.733333 0 512S228.266667 0 512 0s512 228.266667 512 512-228.266667 512-512 512z" fill="#66788A" p-id="18073"></path><path d="M302.933333 349.866667c25.6 0 46.933333 21.333333 46.933334 46.933333V490.666667c0 25.6-21.333333 46.933333-46.933334 46.933333-25.6 0-46.933333-21.333333-46.933333-46.933333v-93.866667c0-27.733333 21.333333-46.933333 46.933333-46.933333zM721.066667 349.866667c25.6 0 46.933333 21.333333 46.933333 46.933333V490.666667c0 25.6-21.333333 46.933333-46.933333 46.933333-25.6 0-46.933333-21.333333-46.933334-46.933333v-93.866667c0-27.733333 21.333333-46.933333 46.933334-46.933333zM661.333333 629.333333H362.666667c-14.933333 0-23.466667 19.2-19.2 36.266667 21.333333 78.933333 89.6 134.4 168.533333 134.4s147.2-57.6 168.533333-134.4c6.4-19.2-4.266667-36.266667-19.2-36.266667" fill="#66788A" p-id="18074"></path></svg>