<?xml version="1.0" standalone="no"?><!DOCTYPE svg PUBLIC "-//W3C//DTD SVG 1.1//EN" "http://www.w3.org/Graphics/SVG/1.1/DTD/svg11.dtd"><svg t="1758807400019" class="icon" viewBox="0 0 1024 1024" version="1.1" xmlns="http://www.w3.org/2000/svg" p-id="10667" xmlns:xlink="http://www.w3.org/1999/xlink" width="256" height="256"><path d="M461.1 958.6c-27.9 0-53.9-5.2-78-15.7s-45.2-24.8-63.4-43.1c-18.2-18.2-32.6-39.4-43.1-63.4-10.5-24.1-15.7-50.1-15.7-78l1.7-444c0-27.9 5.5-56.7 16.6-86.4 11.1-29.7 27.2-56.6 48.3-80.9 21.1-24.2 47.4-44.3 78.8-60.2C437.7 71 473.6 63.1 514 63c39.6 0 74.8 7.7 105.6 23 30.8 15.3 56.9 35.2 78.3 59.7 21.3 24.4 37.5 51.3 48.6 80.6 11.1 29.3 16.6 57.9 16.6 85.8l-1.8 394c0 7-4.3 13-12.8 18s-16.3 7.6-23.3 7.6c-6.6-0.4-14.2-3-23-7.9-8.7-4.9-13.1-10.8-13.1-17.7l1.8-392.8c0-21-3.5-41.9-10.5-62.9-7-20.9-17.8-39.9-32.6-57-14.7-17.1-33.2-30.8-55.3-41.3-22.1-10.5-48.3-15.7-78.6-15.7-27.2 0-51.8 5.4-73.9 16.3-22.1 10.9-40.8 24.9-56.2 42.2-15.3 17.3-27.3 36.4-35.8 57.3-8.5 20.9-12.8 41.9-12.8 62.8l-1.7 442.9c0 21 3.4 39.3 10.2 55 6.8 15.7 15.8 29 27.1 39.9 11.3 10.9 24.6 19 40.2 24.4 15.5 5.4 32.2 8.1 50.1 8.2 33-0.4 59.4-11.4 79.1-33.2 19.8-21.7 29.7-53.6 29.7-95.4l1.2-400.4c0-17.9-5.5-32.1-16.6-42.8-11.1-10.7-23.6-16-37.5-16-17.1 0-30.4 6.3-39.9 18.9-9.5 12.6-14.2 25.9-14.2 39.9l-1.2 363.1c0 7-4.3 13-12.8 18-8.5 5.1-16.3 7.6-23.3 7.6s-14.8-2.4-23.6-7.3c-8.7-4.9-13-10.8-13-17.8l1.7-363.7c0-27.9 3.7-51 11-69.3 7.4-18.2 17-32.7 28.8-43.4 11.8-10.7 25.3-18.1 40.4-22.4 15.1-4.3 30.6-6.6 46.6-7 12.8-0.4 26.7 1.7 41.6 6.1 14.9 4.5 28.6 12.1 41 23 12.4 10.9 22.8 25.3 31.1 43.4 8.3 18 12.3 40.8 11.9 68.4 0 14 0.2 26.6 0.6 37.8 0.4 9.7 0.5 18.5 0.3 26.5s-0.3 12.3-0.3 13.1l-0.6 324.2c0 27.9-4.3 54.1-12.8 78.6-8.5 24.4-20.7 45.8-36.7 64-15.9 18.2-35 32.7-57.3 43.3-22.1 10.6-47.2 15.9-75.2 16z m0 0" p-id="10668" fill="#66788A"></path></svg>